<?xml version="1.0" encoding="UTF-8"?><svg id="Layer_1" xmlns="http://www.w3.org/2000/svg" xmlns:xlink="http://www.w3.org/1999/xlink" viewBox="0 0 477.49 93.76"><defs><style>.cls-1{fill:url(#linear-gradient);}.cls-1,.cls-2{fill-rule:evenodd;}.cls-3{fill:#3d4b5a;}.cls-4{fill:url(#linear-gradient-3);}.cls-2{fill:url(#linear-gradient-2);}</style><linearGradient id="linear-gradient" x1="55.31" y1="45.5" x2="93.76" y2="45.5" gradientUnits="userSpaceOnUse"><stop offset="0" stop-color="#4a2c83"/><stop offset=".53" stop-color="#7d52a1"/><stop offset="1" stop-color="#c467a8"/></linearGradient><linearGradient id="linear-gradient-2" x1="0" y1="46.88" x2="77.25" y2="46.88" gradientUnits="userSpaceOnUse"><stop offset="0" stop-color="#3c5ba9"/><stop offset="1" stop-color="#51c8ec"/></linearGradient><linearGradient id="linear-gradient-3" x1="38.63" y1="46.33" x2="55.43" y2="46.33" xlink:href="#linear-gradient"/></defs><path class="cls-1" d="M93.76,46.73c0,5.26-2.54,9.78-7.03,12.5-.5,.3-1,.62-1.49,.93h-26.25c.49-.32,.99-.63,1.49-.93,4.5-2.73,7.03-7.25,7.03-12.51,0-5.26-2.55-9.78-7.05-12.49-1.77-1.07-3.49-2.2-5.16-3.39h26.23c1.67,1.18,3.39,2.32,5.17,3.39,4.5,2.73,7.04,7.24,7.05,12.5Z"/><g><g><path class="cls-3" d="M111.49,17.65h10.63l15.72,39.76,14.33-39.76h10.17l-19.73,54.86h-9.71l-21.42-54.86Z"/><path class="cls-3" d="M164.27,22.66c0-.36,.08-.81,.23-1.35,.15-.54,.44-1.05,.85-1.54,.41-.49,.97-.91,1.7-1.27,.72-.36,1.64-.54,2.77-.54s1.98,.17,2.7,.5c.72,.33,1.3,.75,1.73,1.23,.44,.49,.73,1,.89,1.54,.15,.54,.23,1.01,.23,1.43s-.08,.89-.23,1.43c-.15,.54-.45,1.05-.89,1.54-.44,.49-1.01,.9-1.73,1.23-.72,.33-1.62,.5-2.7,.5s-2.06-.18-2.77-.54c-.72-.36-1.28-.78-1.7-1.27-.41-.49-.69-1-.85-1.54-.15-.54-.23-.99-.23-1.35Zm.69,9.48h9.79v40.38h-9.79V32.14Z"/><path class="cls-3" d="M189.7,61.26c.92,.82,1.78,1.53,2.58,2.12,.8,.59,1.63,1.05,2.5,1.39,.87,.34,1.8,.59,2.77,.77,.97,.18,2.08,.27,3.31,.27,.77,0,1.64-.06,2.62-.19,.98-.13,1.86-.36,2.66-.69,.8-.33,1.43-.78,1.89-1.35,.46-.56,.56-1.28,.31-2.16-.31-.87-.87-1.58-1.7-2.12-.82-.54-1.76-.99-2.81-1.35-1.05-.36-2.13-.64-3.24-.85-1.11-.21-2.12-.41-3.04-.62-1.75-.41-3.47-.92-5.16-1.54-1.69-.62-3.21-1.43-4.55-2.43-1.34-1-2.44-2.23-3.31-3.7-.87-1.46-1.36-3.22-1.46-5.28-.1-2,.28-3.78,1.16-5.32,.87-1.54,2.11-2.85,3.7-3.93,1.59-1.08,3.47-1.91,5.62-2.5,2.16-.59,4.47-.89,6.93-.89,4.21,0,7.94,.8,11.17,2.39,3.24,1.59,5.5,3.9,6.78,6.93l-8.4,3.31c-.87-1.7-2.18-2.95-3.93-3.78-1.75-.82-3.78-1.23-6.09-1.23-2.16-.05-3.89,.33-5.2,1.16-1.31,.82-1.89,1.98-1.73,3.47,.1,1.18,.58,2.15,1.43,2.89,.85,.74,1.86,1.36,3.04,1.85,1.18,.49,2.41,.87,3.7,1.16,1.28,.28,2.41,.55,3.39,.81,1.64,.36,3.27,.8,4.89,1.31,1.62,.51,3.09,1.19,4.43,2.04,1.34,.85,2.45,1.93,3.35,3.24,.9,1.31,1.4,2.94,1.5,4.89,.15,2.06-.26,3.85-1.23,5.39-.98,1.54-2.31,2.83-4.01,3.85-1.69,1.03-3.66,1.81-5.89,2.35-2.23,.54-4.56,.81-6.97,.81-3.9,0-7.29-.57-10.17-1.7-2.88-1.13-5.45-2.85-7.71-5.16l6.86-5.62Z"/><path class="cls-3" d="M225.21,22.66c0-.36,.08-.81,.23-1.35,.15-.54,.44-1.05,.85-1.54,.41-.49,.97-.91,1.7-1.27,.72-.36,1.64-.54,2.77-.54s1.98,.17,2.7,.5c.72,.33,1.3,.75,1.73,1.23,.44,.49,.73,1,.89,1.54,.15,.54,.23,1.01,.23,1.43s-.08,.89-.23,1.43c-.15,.54-.45,1.05-.89,1.54-.44,.49-1.01,.9-1.73,1.23-.72,.33-1.62,.5-2.7,.5s-2.05-.18-2.77-.54c-.72-.36-1.28-.78-1.7-1.27-.41-.49-.69-1-.85-1.54-.15-.54-.23-.99-.23-1.35Zm.69,9.48h9.79v40.38h-9.79V32.14Z"/><path class="cls-3" d="M252.8,16.27v20.88c1.49-1.75,3.35-3.13,5.59-4.16,2.23-1.03,4.58-1.54,7.05-1.54,3.13,0,5.97,.54,8.51,1.62,2.54,1.08,4.73,2.57,6.55,4.47,1.82,1.9,3.22,4.15,4.2,6.74,.98,2.59,1.46,5.41,1.46,8.44,0,3.24-.58,6.15-1.73,8.75-1.16,2.59-2.72,4.79-4.7,6.59-1.98,1.8-4.29,3.17-6.93,4.12-2.65,.95-5.46,1.43-8.44,1.43-2.62,0-5.2-.46-7.74-1.39-2.54-.92-4.82-2.23-6.82-3.93-2-1.7-3.63-3.71-4.89-6.05-1.26-2.34-1.89-4.89-1.89-7.67V16.27h9.79Zm12.02,49.39c1.75,0,3.32-.31,4.74-.92,1.41-.62,2.62-1.49,3.62-2.62,1-1.13,1.77-2.49,2.31-4.08,.54-1.59,.81-3.34,.81-5.24,0-1.64-.23-3.29-.69-4.93-.46-1.64-1.17-3.12-2.12-4.43-.95-1.31-2.15-2.38-3.58-3.2-1.44-.82-3.13-1.23-5.09-1.23-1.85,0-3.52,.41-5.01,1.23-1.49,.82-2.75,1.88-3.78,3.16-1.03,1.28-1.81,2.74-2.35,4.35-.54,1.62-.81,3.22-.81,4.82,0,1.85,.26,3.56,.77,5.12,.51,1.57,1.28,2.93,2.31,4.08,1.03,1.16,2.29,2.08,3.78,2.77s3.19,1.07,5.09,1.12Z"/><path class="cls-3" d="M291.25,22.66c0-.36,.08-.81,.23-1.35,.15-.54,.44-1.05,.85-1.54,.41-.49,.97-.91,1.7-1.27,.72-.36,1.64-.54,2.77-.54s1.98,.17,2.7,.5c.72,.33,1.3,.75,1.73,1.23,.44,.49,.73,1,.89,1.54,.15,.54,.23,1.01,.23,1.43s-.08,.89-.23,1.43c-.15,.54-.45,1.05-.89,1.54-.44,.49-1.01,.9-1.73,1.23-.72,.33-1.62,.5-2.7,.5s-2.05-.18-2.77-.54c-.72-.36-1.28-.78-1.7-1.27-.41-.49-.69-1-.85-1.54-.15-.54-.23-.99-.23-1.35Zm.69,9.48h9.79v40.38h-9.79V32.14Z"/><path class="cls-3" d="M308.58,13.72h9.79v58.79h-9.79V13.72Z"/><path class="cls-3" d="M324.3,22.66c0-.36,.08-.81,.23-1.35,.15-.54,.44-1.05,.85-1.54,.41-.49,.97-.91,1.7-1.27,.72-.36,1.64-.54,2.77-.54s1.98,.17,2.7,.5c.72,.33,1.3,.75,1.73,1.23,.44,.49,.73,1,.89,1.54,.15,.54,.23,1.01,.23,1.43s-.08,.89-.23,1.43c-.15,.54-.45,1.05-.89,1.54-.44,.49-1.01,.9-1.73,1.23-.72,.33-1.62,.5-2.7,.5s-2.05-.18-2.77-.54c-.72-.36-1.28-.78-1.7-1.27-.41-.49-.69-1-.85-1.54-.15-.54-.23-.99-.23-1.35Zm.69,9.48h9.79v40.38h-9.79V32.14Z"/><path class="cls-3" d="M366.76,72.9c-1.34,.26-2.62,.48-3.85,.66-1.23,.18-2.52,.27-3.85,.27-2.62,0-4.82-.39-6.59-1.16-1.77-.77-3.19-1.87-4.24-3.31-1.05-1.44-1.8-3.16-2.23-5.16-.44-2-.65-4.24-.65-6.7v-17.8h-6.39v-7.55h6.39v-10.25h9.79v10.25h10.56v7.55h-10.56v17.72c0,1.08,.02,2.17,.08,3.27,.05,1.11,.24,2.09,.58,2.97,.33,.87,.86,1.59,1.58,2.16,.72,.57,1.75,.85,3.08,.85,1.03,0,2.08-.1,3.16-.31,1.08-.21,2.13-.41,3.16-.62v7.17Z"/><path class="cls-3" d="M385.55,71.13l-17.11-38.68h10.32l12.02,26.81,11.87-26.81h10.17l-25.74,58.41h-10.17l8.63-19.73Z"/></g><g><path class="cls-3" d="M411.54,72.51l18.72-54.86h9.79l22.42,54.86h-10.32l-5.7-13.79h-19.96l-4.7,13.79h-10.25Zm17.49-21.34h14.41l-7.86-19.19-6.55,19.19Z"/><path class="cls-3" d="M467.63,17.65h9.86v54.86h-9.86V17.65Z"/></g></g><path class="cls-2" d="M77.25,66.05h-26.25s0,0,0,0c-1.42,1.16-2.81,2.38-4.14,3.64l1.06,1.03c-.35-.34-.7-.68-1.06-1.02-4.12-3.85-8.64-7.26-13.58-10.25-4.5-2.72-7.04-7.24-7.05-12.49,0-5.26,2.54-9.78,7.03-12.51,4.98-3.03,9.52-6.48,13.62-10.35l-1.07-1.04c.36,.35,.71,.7,1.07,1.04,.32,.3,.65,.6,.98,.89h0s26.24,0,26.24,0c0,0,0,0,0,0-5.42-4.89-10.15-10.53-14.15-16.92-.21-.33-.43-.67-.63-1.01C56.6,2.54,52.08,0,46.82,0c-5.26,0-9.78,2.55-12.49,7.05-.21,.34-.41,.67-.62,.99,0,0,0,0,0,0-6.76,10.84-15.63,19.67-26.69,26.39C2.54,37.16,0,41.68,0,46.93c0,5.26,2.55,9.78,7.05,12.5,10.96,6.63,19.91,15.36,26.75,26.28,.21,.33,.43,.67,.63,1.01,2.73,4.49,7.25,7.03,12.5,7.03,5.26,0,9.78-2.55,12.49-7.05,.21-.34,.41-.67,.62-.99,0,0,0,0,0,0,4.7-7.55,10.43-14.11,17.2-19.67Z"/><circle class="cls-4" cx="47.03" cy="46.33" r="8.4"/></svg>